<?xml version="1.0" encoding="utf-8"?>
<svg width="40px" height="40px" viewBox="0 0 40 40" version="1.1" xmlns:xlink="http://www.w3.org/1999/xlink" xmlns="http://www.w3.org/2000/svg">
  <path d="M14.9606 3.7515C14.4683 3.7515 13.9837 3.94922 13.632 4.3009L4.30088 13.6321C3.94921 13.9837 3.75149 14.4683 3.75149 14.9606L3.75149 25.042C3.75149 25.5344 3.94921 25.9486 4.30088 26.3706L1.64768 29.0199C0.592802 27.9648 0 26.5347 0 25.042L0 14.9606C0 13.4679 0.592802 12.0378 1.64768 10.9828L10.9827 1.64769C12.0378 0.592818 13.4679 0 14.9606 0L25.042 0C26.5347 0 27.9648 0.592818 29.0199 1.64769L38.351 10.9828C39.4061 12.0378 40 13.4679 40 14.9606L40 25.042C40 26.5347 39.4061 27.9648 38.351 29.0199L29.0199 38.351C27.9648 39.4061 26.5347 40 25.042 40L14.9606 40C13.4679 40 12.0378 39.4061 10.9827 38.351L1.64768 29.0199L4.30088 26.3706L13.632 35.7017C13.9837 36.0534 14.4683 36.2488 14.9606 36.2488L25.042 36.2488C25.5344 36.2488 25.9486 36.0534 26.3706 35.7017L35.7017 26.3706C36.0534 25.9486 36.2488 25.5344 36.2488 25.042L36.2488 14.9606C36.2488 14.4683 36.0534 13.9837 35.7017 13.6321L26.3706 4.3009C25.9486 3.94922 25.5344 3.7515 25.042 3.7515L14.9606 3.7515ZM18.7587 26.2612C18.0944 27.0583 16.9065 27.0583 16.1719 26.2612L11.1703 21.2595C10.4435 20.5953 10.4435 19.4074 11.1703 18.6728C11.9049 17.946 13.0928 17.946 13.7571 18.6728L17.5005 22.3536L26.1752 13.6711C26.9098 12.9443 28.0977 12.9443 28.762 13.6711C29.5591 14.4057 29.5591 15.5936 28.762 16.2579L18.7587 26.2612Z" id="Shape" fill="#FFCD00" stroke="none" />
</svg>