<?xml version="1.0" encoding="utf-8"?>
<svg width="39px" height="36px" viewBox="0 0 39 36" version="1.1" xmlns:xlink="http://www.w3.org/1999/xlink" xmlns="http://www.w3.org/2000/svg">
  <defs>
    <filter id="filter_1">
      <feColorMatrix in="SourceGraphic" type="matrix" values="0 0 0 0 1 0 0 0 0 0.8039216 0 0 0 0 0 0 0 0 1 0" />
    </filter>
  </defs>
  <g id="briefcase-regular">
    <path d="M34.125 7.2L29.25 7.2L29.25 4.8C29.25 2.14875 27.0677 0 24.375 0L14.625 0C11.9361 0 9.75 2.14875 9.75 4.8L9.75 7.2L4.875 7.2C2.18232 7.2 0 9.3525 0 12L0 31.2C0 33.8512 2.18232 36 4.875 36L34.125 36C36.8177 36 39 33.8512 39 31.2L39 12C39 9.3525 36.8139 7.2 34.125 7.2ZM14.625 3.6L24.375 3.6C25.0481 3.6 25.5938 4.13723 25.5938 4.8L25.5938 7.2L13.4063 7.2L13.4063 4.8C13.4063 4.137 13.9547 3.6 14.625 3.6ZM4.875 10.8L34.125 10.8C34.7953 10.8 35.3438 11.34 35.3438 12L35.3438 19.2L3.65625 19.2L3.65625 12C3.65625 11.34 4.20469 10.8 4.875 10.8ZM34.125 32.4L4.875 32.4C4.20469 32.4 3.65625 31.86 3.65625 31.2L3.65625 22.8L14.625 22.8L14.625 24C14.625 25.3252 15.7165 26.4 17.0625 26.4L21.9375 26.4C23.2835 26.4 24.375 25.3252 24.375 24L24.375 22.8L35.3438 22.8L35.3438 31.2C35.3438 31.86 34.7953 32.4 34.125 32.4Z" id="Shape" fill="#FFCD00" stroke="none" />
  </g>
</svg>