<?xml version="1.0" encoding="utf-8"?>
<svg width="43px" height="35px" viewBox="0 0 43 35" version="1.1" xmlns:xlink="http://www.w3.org/1999/xlink" xmlns="http://www.w3.org/2000/svg">
  <defs>
    <filter id="filter_1">
      <feColorMatrix in="SourceGraphic" type="matrix" values="0 0 0 0 1 0 0 0 0 0.8039216 0 0 0 0 0 0 0 0 1 0" />
    </filter>
  </defs>
  <g id="chart-network-regular">
    <path d="M19.35 4.375C19.35 5.52686 18.9133 6.5748 18.1944 7.35547L20.0017 11.293C20.8214 11.0605 21.6814 10.9375 22.575 10.9375C25.1348 10.9375 27.5738 11.9971 29.3139 13.7197L34.5277 9.82324C34.447 9.48145 34.4 9.11914 34.4 8.75C34.4 6.3335 36.3283 4.375 38.7 4.375C41.0717 4.375 43 6.3335 43 8.75C43 11.1631 41.0717 13.125 38.7 13.125C37.8736 13.125 37.0942 12.8857 36.4358 12.4688L31.222 16.3652C31.8805 17.6914 32.25 19.1953 32.25 20.7813C32.25 22.0459 32.0148 23.2559 31.5848 24.3701L36.1133 27.1318C36.8322 26.5781 37.7258 26.25 38.7 26.25C41.0717 26.25 43 28.2119 43 30.625C43 33.0381 41.0717 35 38.7 35C36.3283 35 34.4 33.0381 34.4 30.625C34.4 30.3926 34.4202 30.167 34.4538 29.9482L29.9253 27.1797C28.0911 29.292 25.5178 30.625 22.575 30.625C17.7778 30.625 13.8003 27.0771 12.9739 22.4219L8.28422 22.4219C7.65266 24.0283 6.10466 25.1563 4.3 25.1563C1.92492 25.1563 0 23.1943 0 20.7813C0 18.3682 1.92492 16.4063 4.3 16.4063C6.10466 16.4063 7.65266 17.5342 8.28422 19.1406L12.9739 19.1406C13.4778 16.4678 14.9761 14.1572 17.0791 12.6807L15.2717 8.74316C15.1978 8.68848 15.1239 8.75 15.05 8.75C12.6783 8.75 10.75 6.7915 10.75 4.375C10.75 1.9585 12.6783 0 15.05 0C17.4217 0 19.35 1.9585 19.35 4.375L19.35 4.375ZM22.575 27.3438C26.1359 27.3438 29.025 24.4043 29.025 20.7813C29.025 17.0967 26.1359 14.2188 22.575 14.2188C18.9536 14.2188 16.125 17.0967 16.125 20.7813C16.125 24.4043 18.9536 27.3438 22.575 27.3438Z" id="Shape" fill="#FFCD00" stroke="none" />
  </g>
</svg>