<?xml version="1.0" encoding="utf-8"?>
<svg width="36px" height="39px" viewBox="0 0 36 39" version="1.1" xmlns:xlink="http://www.w3.org/1999/xlink" xmlns="http://www.w3.org/2000/svg">
  <defs>
    <filter id="filter_1">
      <feColorMatrix in="SourceGraphic" type="matrix" values="0 0 0 0 1 0 0 0 0 0.8039216 0 0 0 0 0 0 0 0 1 0" />
    </filter>
  </defs>
  <g id="hand-regular">
    <path d="M30.6 6.09375C30.3004 6.09375 30.0068 6.1186 29.7202 6.1665C29.0013 3.99484 26.9775 2.4257 24.6 2.4257C24.1157 2.4257 23.646 2.49087 23.199 2.61286C22.245 1.04584 20.5425 0 18.6 0C16.6575 0 14.9475 1.05041 13.995 2.62336C13.5525 2.50225 13.0875 2.4375 12.6075 2.4375C9.63 2.4375 7.20075 4.89785 7.20075 7.92188L7.20075 17.1844C6.80775 17.1082 6.40575 17.0625 6.00075 17.0625C6.00056 17.0625 6.00095 17.0625 6.00075 17.0625C2.73225 17.0625 0 19.7438 0 23.1639C0 24.7094 0.56685 26.1742 1.6095 27.3114L7.70325 33.9567C10.6425 37.1643 14.805 39 19.1175 39L21.5985 39C29.5425 39 36 32.4416 36 24.375L36 11.5781C36 8.5541 33.5775 6.09375 30.6 6.09375ZM32.4 24.375C32.4 30.4238 27.5558 35.3438 21.6675 35.3438L19.1175 35.3438C15.7868 35.3438 12.6052 33.9376 10.335 31.462L4.353 24.9394C3.88785 24.4322 3.64755 23.7664 3.64755 23.1799C3.64755 21.4919 5.0373 20.7881 5.9988 20.7881C6.6408 20.7881 7.2813 21.0483 7.7553 21.5635L9.7593 23.7489C9.885 23.8189 10.0425 23.8723 10.1925 23.8723C10.5005 23.8723 10.7973 23.6306 10.7973 23.2617L10.7973 7.92188C10.7973 6.9126 11.6035 6.09375 12.5298 6.09375C13.5236 6.09375 14.2623 6.9126 14.2623 7.92188L14.2623 19.5C14.4 20.1703 14.94 20.7188 15.6 20.7188C16.26 20.7188 16.7325 20.1731 16.7325 19.5686L16.8 5.48438C16.8 4.4751 17.6063 3.65625 18.5325 3.65625C19.5263 3.65625 20.265 4.4751 20.265 5.48438L20.265 19.5C20.4 20.1703 20.94 20.7188 21.6 20.7188C22.26 20.7188 22.7992 20.1731 22.7992 19.5686L22.7998 7.9752C22.7998 6.96592 23.6061 6.14707 24.5323 6.14707C25.5261 6.14707 26.2648 6.96592 26.2648 7.9752L26.2648 19.5686C26.4 20.1703 26.94 20.7188 27.6 20.7188C28.26 20.7188 28.7325 20.1731 28.7325 19.5686L28.7325 11.5781C28.7325 10.5688 29.5388 9.75 30.465 9.75C31.4588 9.75 32.1975 10.5688 32.1975 11.5781L32.1975 24.375L32.4 24.375Z" id="Shape" fill="#FFCD00" stroke="none" />
  </g>
</svg>