<?xml version="1.0" encoding="utf-8"?>
<svg width="258px" height="258px" viewBox="0 0 258 258" version="1.1" xmlns:xlink="http://www.w3.org/1999/xlink" xmlns="http://www.w3.org/2000/svg">
  <defs>
    <rect width="258" height="258" id="artboard_1" />
    <clipPath id="clip_1">
      <use xlink:href="#artboard_1" clip-rule="evenodd" />
    </clipPath>
  </defs>
  <g id="brand-primary-logo" clip-path="url(#clip_1)">
    <path d="M0 0L258 0L258 258L0 258L0 0Z" id="Rectangle" fill="none" fill-rule="evenodd" stroke="none" />
    <g id="Group-17" transform="translate(19.999 21)">
      <g id="Group-3">
        <path d="M216 108C216 167.646 167.646 216 108 216C48.354 216 0 167.646 0 108C0 48.354 48.354 0 108 0C167.646 0 216 48.354 216 108" id="Fill-1" fill="#FFFFFF" fill-rule="evenodd" stroke="none" />
      </g>
      <path d="M56.235 0C25.177 0 0 25.178 0 56.236C0 65.704 2.343 74.623 6.475 82.451L13.81 82.451L13.81 76.168L20.223 76.168L20.223 72.781L26.24 72.781L26.24 55.307L16.741 55.307L16.741 53.725L14.577 53.725L14.577 49.209L56.235 26.803L97.832 49.222L97.776 53.739L95.728 53.66L95.728 55.307L86.23 55.307L86.23 72.781L92.247 72.781L92.247 76.168L98.66 76.168L98.66 82.451L105.995 82.451C110.128 74.623 112.47 65.704 112.47 56.236C112.47 25.178 87.293 0 56.235 0" transform="translate(51.765 51.7639)" id="Fill-4" fill="#FFCD00" fill-rule="evenodd" stroke="none" />
      <path d="M0 17.83L8.189 17.83L8.189 0L0 0L0 17.83Z" transform="translate(104.102 107.071)" id="Fill-6" fill="#FFCE01" fill-rule="evenodd" stroke="none" />
      <path d="M0 17.83L8.189 17.83L8.189 0L0 0L0 17.83Z" transform="translate(86.909 107.071)" id="Fill-8" fill="#FFCE01" fill-rule="evenodd" stroke="none" />
      <path d="M0 17.83L8.189 17.83L8.189 0L0 0L0 17.83Z" transform="translate(121.296 107.071)" id="Fill-9" fill="#FFCE01" fill-rule="evenodd" stroke="none" />
      <path d="M0 3.622L2.794 3.622L1.363 0L0 3.622Z" transform="translate(81.5356 178.5037)" id="Fill-10" fill="#162A53" fill-rule="evenodd" stroke="none" />
      <path d="M1.931 0L0 5.13L3.96 5.13L1.931 0Z" transform="translate(76.7039 159.2442)" id="Fill-11" fill="#162A53" fill-rule="evenodd" stroke="none" />
      <path d="M2.458 0.283C2.152 0.161 1.826 0.083 1.481 0.049C1.137 0.016 0.644 0 0 0L0 7.297C0 7.715 0.021 8.02 0.062 8.212C0.103 8.403 0.223 8.549 0.422 8.649C0.621 8.748 0.929 8.797 1.348 8.797C2.588 8.797 3.465 8.364 3.978 7.496C4.491 6.628 4.747 5.63 4.747 4.502C4.747 3.425 4.542 2.523 4.131 1.796C3.72 1.068 3.162 0.564 2.458 0.283" transform="translate(94.8674 176.1306)" id="Fill-12" fill="#162A53" fill-rule="evenodd" stroke="none" />
      <path d="M0 3.622L2.794 3.622L1.363 0L0 3.622Z" transform="translate(56.3024 178.5037)" id="Fill-13" fill="#162A53" fill-rule="evenodd" stroke="none" />
      <path d="M0 0.445L5.251 4.937L6.95 0L0 0.445Z" transform="translate(25.9854 80.0621)" id="Fill-14" fill="#162A53" fill-rule="evenodd" stroke="none" />
      <path d="M0 5.13L3.959 5.13L1.931 0L0 5.13Z" transform="translate(149.785 159.2443)" id="Fill-15" fill="#162A53" fill-rule="evenodd" stroke="none" />
      <path d="M189.099 82.527C190.554 81.678 191.457 80.871 191.806 80.105C192.156 79.339 192.116 78.319 191.686 77.047L191.091 75.287L176.689 80.155C175.757 80.47 175.162 80.848 174.903 81.287C174.644 81.726 174.685 82.452 175.027 83.464L175.205 83.99L173.536 84.554L169.731 73.294L171.4 72.73L171.562 73.212C171.908 74.233 172.32 74.834 172.799 75.013C173.278 75.191 173.974 75.126 174.886 74.818L189.287 69.951L188.708 68.237C188.363 67.214 187.998 66.501 187.615 66.094C187.232 65.687 186.657 65.432 185.891 65.328C185.124 65.225 184.278 65.289 183.353 65.524L182.779 63.826L188.582 61.865L195.476 82.265L189.673 84.226L189.099 82.527ZM171.024 165.023L157.92 165.023L157.92 164.025C158.824 164.025 159.407 163.895 159.667 163.635C159.927 163.375 160.057 162.925 160.057 162.29L160.057 153.047C160.057 152.62 160.014 152.289 159.927 152.055C159.84 151.82 159.64 151.638 159.325 151.508C159.011 151.378 158.542 151.312 157.92 151.312L157.92 150.314L165.318 150.314L165.318 151.312C164.704 151.312 164.239 151.373 163.923 151.496C163.61 151.62 163.403 151.799 163.306 152.033C163.208 152.268 163.16 152.606 163.16 153.047L163.16 161.509C163.16 162.173 163.192 162.651 163.257 162.941C163.322 163.229 163.499 163.449 163.788 163.597C164.077 163.745 164.551 163.819 165.21 163.819C166.041 163.819 166.77 163.756 167.395 163.63C168.021 163.502 168.6 163.166 169.13 162.62C169.663 162.074 169.993 161.237 170.123 160.109L171.121 160.109L171.024 165.023ZM156.597 179.296C156.459 179.656 156.251 180 155.973 180.329C155.694 180.659 155.344 180.927 154.92 181.133C154.497 181.34 154.007 181.444 153.45 181.444C152.898 181.444 152.351 181.324 151.808 181.084C151.264 180.844 150.803 180.487 150.425 180.012C150.262 180.39 150.157 180.739 150.111 181.061L149.407 181.061L149.407 177.508L150.111 177.508C150.239 178.018 150.415 178.498 150.64 178.947C150.864 179.396 151.182 179.783 151.593 180.107C152.004 180.431 152.508 180.594 153.105 180.594C153.626 180.594 154.043 180.451 154.357 180.165C154.671 179.879 154.828 179.519 154.828 179.085C154.828 178.84 154.78 178.625 154.683 178.442C154.586 178.258 154.445 178.094 154.262 177.948C154.078 177.803 153.826 177.647 153.507 177.481C153.188 177.315 152.824 177.14 152.416 176.956C151.788 176.66 151.272 176.362 150.869 176.061C150.466 175.76 150.161 175.467 149.955 175.184C149.748 174.9 149.605 174.632 149.526 174.376C149.447 174.121 149.407 173.863 149.407 173.603C149.407 173.138 149.532 172.68 149.782 172.228C150.032 171.777 150.399 171.407 150.881 171.118C151.363 170.83 151.921 170.685 152.554 170.685C153.039 170.685 153.501 170.794 153.94 171.011C154.379 171.228 154.759 171.525 155.081 171.903C155.173 171.688 155.257 171.387 155.334 170.999L156.053 170.999L156.053 173.894L155.334 173.894C154.823 172.316 153.935 171.527 152.669 171.527C152.209 171.527 151.841 171.649 151.563 171.892C151.284 172.134 151.145 172.446 151.145 172.829C151.145 173.131 151.232 173.392 151.405 173.614C151.579 173.836 151.808 174.027 152.091 174.185C152.374 174.343 152.832 174.57 153.465 174.866C154.231 175.229 154.829 175.543 155.26 175.808C155.692 176.073 156.057 176.408 156.356 176.811C156.654 177.214 156.803 177.702 156.803 178.273C156.803 178.595 156.735 178.936 156.597 179.296L156.597 179.296ZM150.302 162.647L149.608 160.911L144.836 160.911L144.477 161.866C144.275 162.402 144.174 162.788 144.174 163.028C144.174 163.461 144.342 163.735 144.677 163.852C145.014 163.967 145.406 164.025 145.855 164.025L145.855 165.023L140.789 165.023L140.789 164.025C141.195 164.025 141.537 163.949 141.82 163.796C142.101 163.645 142.371 163.358 142.628 162.936C142.885 162.512 143.161 161.913 143.457 161.14L147.699 150.032L148.729 150.032L153.209 161.487C153.534 162.296 153.773 162.845 153.925 163.13C154.077 163.415 154.287 163.636 154.554 163.791C154.821 163.947 155.198 164.025 155.682 164.025L155.682 165.023L148.751 165.023L148.751 164.025C149.337 164.025 149.763 163.983 150.031 163.9C150.298 163.817 150.432 163.62 150.432 163.309C150.432 163.092 150.389 162.872 150.302 162.647L150.302 162.647ZM146.128 181.252L136.878 181.252L136.878 180.548C137.516 180.548 137.927 180.456 138.111 180.272C138.295 180.088 138.387 179.772 138.387 179.322L138.387 172.799C138.387 172.503 138.358 172.272 138.299 172.106C138.24 171.94 138.103 171.81 137.886 171.715C137.669 171.621 137.333 171.573 136.878 171.573L136.878 170.869L145.492 170.869L145.63 173.565L144.926 173.565C144.767 172.967 144.585 172.54 144.379 172.282C144.172 172.024 143.939 171.866 143.682 171.807C143.424 171.749 143.037 171.719 142.522 171.719L140.577 171.719L140.577 175.387L141.634 175.387C141.996 175.387 142.267 175.355 142.445 175.291C142.624 175.227 142.749 175.106 142.82 174.928C142.892 174.749 142.94 174.468 142.966 174.085L143.701 174.085L143.701 177.538L142.996 177.538C142.976 177.155 142.925 176.874 142.843 176.692C142.762 176.511 142.632 176.39 142.456 176.329C142.28 176.267 142.011 176.237 141.649 176.237L140.577 176.237L140.577 178.679C140.577 179.087 140.587 179.386 140.607 179.575C140.628 179.764 140.683 179.921 140.772 180.046C140.861 180.171 141.007 180.262 141.208 180.318C141.41 180.374 141.697 180.402 142.07 180.402L142.905 180.402C143.257 180.402 143.592 180.357 143.911 180.268C144.23 180.179 144.543 179.949 144.849 179.579C145.155 179.209 145.37 178.628 145.492 177.837L146.212 177.837L146.128 181.252ZM135.905 163.201C135.356 163.771 134.727 164.264 134.018 164.676C133.309 165.088 132.351 165.294 131.143 165.294C129.82 165.294 128.592 164.972 127.461 164.329C126.329 163.684 125.427 162.786 124.755 161.634C124.082 160.48 123.746 159.18 123.746 157.734C123.746 156.706 123.928 155.726 124.293 154.794C124.659 153.861 125.179 153.04 125.855 152.332C126.532 151.623 127.338 151.066 128.275 150.661C129.21 150.256 130.236 150.054 131.35 150.054C133.187 150.054 134.705 150.654 135.905 151.855C136.064 151.543 136.22 151.092 136.372 150.498L137.348 150.498L137.521 155.912L136.48 155.912C136.292 154.993 135.953 154.176 135.46 153.46C134.969 152.744 134.385 152.197 133.709 151.817C133.033 151.437 132.326 151.247 131.588 151.247C130.764 151.247 130.022 151.473 129.364 151.924C128.707 152.376 128.191 153.065 127.819 153.991C127.446 154.917 127.26 156.07 127.26 157.452C127.26 158.797 127.416 159.916 127.727 160.809C128.038 161.701 128.423 162.377 128.882 162.832C129.341 163.288 129.802 163.597 130.264 163.76C130.727 163.922 131.161 164.003 131.567 164.003C132.456 164.003 133.257 163.765 133.969 163.288C134.681 162.811 135.266 162.208 135.721 161.482C136.177 160.755 136.48 160.033 136.632 159.318L137.674 159.318L137.674 164.871L136.654 164.871C136.502 164.248 136.252 163.692 135.905 163.201L135.905 163.201ZM134.48 171.573C134.041 171.573 133.71 171.617 133.485 171.704C133.261 171.79 133.114 171.917 133.045 172.083C132.976 172.249 132.942 172.487 132.942 172.799L132.942 179.322C132.942 179.618 132.975 179.851 133.041 180.019C133.107 180.188 133.249 180.318 133.466 180.41C133.683 180.502 134.021 180.548 134.48 180.548L134.48 181.252L129.213 181.252L129.213 180.548C129.652 180.548 129.984 180.505 130.208 180.421C130.433 180.337 130.579 180.211 130.648 180.042C130.717 179.874 130.752 179.634 130.752 179.322L130.752 172.799C130.752 172.35 130.658 172.033 130.472 171.849C130.286 171.665 129.866 171.573 129.213 171.573L129.213 170.869L134.48 170.869L134.48 171.573ZM126.822 171.573C126.184 171.573 125.771 171.667 125.585 171.853C125.399 172.04 125.306 172.355 125.306 172.799L125.306 179.322C125.306 179.603 125.337 179.83 125.398 180.004C125.459 180.178 125.6 180.311 125.822 180.406C126.044 180.5 126.378 180.548 126.822 180.548L126.822 181.252L121.615 181.252L121.615 180.548C122.064 180.548 122.393 180.503 122.603 180.414C122.812 180.324 122.949 180.194 123.013 180.023C123.076 179.852 123.108 179.618 123.108 179.322L123.108 172.814L119.188 181.252L118.721 181.252L114.747 172.814L114.747 178.993C114.747 179.32 114.759 179.57 114.782 179.744C114.805 179.917 114.863 180.065 114.958 180.188C115.052 180.31 115.201 180.401 115.405 180.459C115.609 180.518 115.893 180.548 116.255 180.548L116.255 181.252L112.412 181.252L112.412 180.548C112.779 180.548 113.064 180.517 113.265 180.456C113.467 180.395 113.614 180.303 113.706 180.18C113.797 180.058 113.854 179.911 113.874 179.74C113.894 179.569 113.905 179.32 113.905 178.993L113.905 173.113C113.905 172.674 113.882 172.357 113.836 172.163C113.79 171.969 113.664 171.823 113.457 171.723C113.25 171.624 112.902 171.573 112.412 171.573L112.412 170.869L116.209 170.869L119.655 178.197L123.108 170.869L126.822 170.869L126.822 171.573ZM110.029 162.252C109.834 162.762 109.539 163.25 109.145 163.717C108.751 164.182 108.254 164.562 107.653 164.855C107.053 165.148 106.359 165.294 105.571 165.294C104.79 165.294 104.015 165.124 103.244 164.784C102.474 164.444 101.822 163.939 101.286 163.266C101.054 163.801 100.906 164.296 100.841 164.751L99.843 164.751L99.843 159.718L100.841 159.718C101.022 160.441 101.271 161.122 101.59 161.757C101.909 162.395 102.358 162.942 102.94 163.401C103.522 163.86 104.237 164.09 105.082 164.09C105.82 164.09 106.411 163.888 106.857 163.483C107.301 163.077 107.523 162.568 107.523 161.953C107.523 161.606 107.454 161.302 107.317 161.041C107.18 160.781 106.981 160.549 106.721 160.342C106.46 160.137 106.104 159.916 105.652 159.681C105.2 159.445 104.685 159.198 104.107 158.938C103.217 158.519 102.486 158.095 101.915 157.669C101.344 157.241 100.912 156.828 100.619 156.427C100.326 156.025 100.124 155.644 100.012 155.282C99.899 154.92 99.843 154.555 99.843 154.186C99.843 153.529 100.021 152.879 100.375 152.24C100.729 151.6 101.248 151.075 101.932 150.666C102.615 150.258 103.405 150.054 104.301 150.054C104.989 150.054 105.643 150.207 106.265 150.515C106.887 150.822 107.426 151.243 107.881 151.778C108.011 151.475 108.131 151.048 108.239 150.498L109.259 150.498L109.259 154.598L108.239 154.598C107.516 152.363 106.258 151.247 104.464 151.247C103.813 151.247 103.291 151.418 102.897 151.763C102.503 152.106 102.306 152.549 102.306 153.091C102.306 153.517 102.429 153.889 102.675 154.203C102.92 154.518 103.244 154.787 103.646 155.011C104.046 155.235 104.696 155.557 105.593 155.976C106.677 156.489 107.526 156.935 108.136 157.31C108.747 157.687 109.264 158.16 109.687 158.732C110.111 159.302 110.322 159.994 110.322 160.803C110.322 161.258 110.224 161.742 110.029 162.252L110.029 162.252ZM109.638 181.252L100.388 181.252L100.388 180.548C101.026 180.548 101.437 180.456 101.621 180.272C101.805 180.088 101.897 179.772 101.897 179.322L101.897 172.799C101.897 172.503 101.868 172.272 101.809 172.106C101.75 171.94 101.613 171.81 101.396 171.715C101.178 171.621 100.843 171.573 100.388 171.573L100.388 170.869L109.002 170.869L109.14 173.565L108.436 173.565C108.277 172.967 108.095 172.54 107.888 172.282C107.681 172.024 107.449 171.866 107.191 171.807C106.933 171.749 106.547 171.719 106.032 171.719L104.087 171.719L104.087 175.387L105.144 175.387C105.506 175.387 105.777 175.355 105.955 175.291C106.134 175.227 106.259 175.106 106.33 174.928C106.402 174.749 106.45 174.468 106.476 174.085L107.211 174.085L107.211 177.538L106.506 177.538C106.486 177.155 106.435 176.874 106.353 176.692C106.272 176.511 106.142 176.39 105.966 176.329C105.79 176.267 105.521 176.237 105.159 176.237L104.087 176.237L104.087 178.679C104.087 179.087 104.097 179.386 104.117 179.575C104.138 179.764 104.193 179.921 104.282 180.046C104.371 180.171 104.517 180.262 104.718 180.318C104.92 180.374 105.207 180.402 105.58 180.402L106.415 180.402C106.767 180.402 107.102 180.357 107.421 180.268C107.74 180.179 108.053 179.949 108.359 179.579C108.665 179.209 108.88 178.628 109.002 177.837L109.722 177.837L109.638 181.252ZM97.926 142.832L48.032 142.832C47.671 142.832 47.379 142.54 47.379 142.178C47.379 141.818 47.671 141.525 48.032 141.525L97.926 141.525C98.287 141.525 98.579 141.818 98.579 142.178C98.579 142.54 98.287 142.832 97.926 142.832L97.926 142.832ZM97.186 178.186C96.93 178.791 96.601 179.294 96.198 179.698C95.795 180.101 95.364 180.405 94.904 180.609C93.935 181.038 92.748 181.252 91.344 181.252L86.604 181.252L86.604 180.548C87.043 180.548 87.375 180.505 87.6 180.421C87.824 180.337 87.971 180.211 88.04 180.042C88.109 179.874 88.143 179.634 88.143 179.322L88.143 172.768C88.143 172.319 88.051 172.002 87.868 171.818C87.684 171.635 87.263 171.543 86.604 171.543L86.604 170.823L88.832 170.777C88.909 170.777 89.22 170.772 89.766 170.762C90.312 170.752 90.629 170.746 90.716 170.746C91.568 170.746 92.292 170.792 92.886 170.884C93.481 170.976 94.026 171.124 94.521 171.328C94.976 171.512 95.394 171.769 95.777 172.098C96.16 172.427 96.483 172.803 96.746 173.224C97.009 173.645 97.211 174.103 97.354 174.598C97.497 175.093 97.568 175.612 97.568 176.153C97.568 176.903 97.441 177.581 97.186 178.186L97.186 178.186ZM85.598 164.751L85.598 159.718L86.596 159.718C86.776 160.441 87.026 161.122 87.344 161.757C87.663 162.395 88.113 162.942 88.694 163.401C89.277 163.86 89.991 164.09 90.837 164.09C91.575 164.09 92.166 163.888 92.611 163.483C93.055 163.077 93.278 162.568 93.278 161.953C93.278 161.606 93.209 161.302 93.072 161.041C92.934 160.781 92.735 160.549 92.475 160.342C92.214 160.137 91.859 159.916 91.406 159.681C90.955 159.445 90.44 159.198 89.861 158.938C88.972 158.519 88.241 158.095 87.669 157.669C87.099 157.241 86.666 156.828 86.373 156.427C86.081 156.025 85.878 155.644 85.766 155.282C85.654 154.92 85.598 154.555 85.598 154.186C85.598 153.529 85.775 152.879 86.13 152.24C86.484 151.6 87.002 151.075 87.686 150.666C88.369 150.258 89.16 150.054 90.056 150.054C90.744 150.054 91.397 150.207 92.02 150.515C92.641 150.822 93.18 151.243 93.636 151.778C93.766 151.475 93.885 151.048 93.994 150.498L95.013 150.498L95.013 154.598L93.994 154.598C93.271 152.363 92.013 151.247 90.219 151.247C89.568 151.247 89.046 151.418 88.651 151.763C88.257 152.106 88.06 152.549 88.06 153.091C88.06 153.517 88.183 153.889 88.429 154.203C88.675 154.518 88.998 154.787 89.4 155.011C89.801 155.235 90.45 155.557 91.347 155.976C92.431 156.489 93.279 156.935 93.891 157.31C94.502 157.687 95.019 158.16 95.441 158.732C95.865 159.302 96.076 159.994 96.076 160.803C96.076 161.258 95.979 161.742 95.784 162.252C95.588 162.762 95.293 163.25 94.899 163.717C94.505 164.182 94.008 164.562 93.408 164.855C92.807 165.148 92.113 165.294 91.326 165.294C90.544 165.294 89.769 165.124 88.998 164.784C88.229 164.444 87.576 163.939 87.041 163.266C86.809 163.801 86.661 164.296 86.596 164.751L85.598 164.751ZM84.367 181.252L79.474 181.252L79.474 180.548C79.887 180.548 80.189 180.518 80.378 180.459C80.567 180.401 80.661 180.262 80.661 180.042C80.661 179.889 80.63 179.733 80.569 179.575L80.079 178.35L76.71 178.35L76.458 179.024C76.315 179.401 76.243 179.675 76.243 179.843C76.243 180.149 76.361 180.344 76.599 180.425C76.836 180.507 77.113 180.548 77.43 180.548L77.43 181.252L73.854 181.252L73.854 180.548C74.14 180.548 74.383 180.494 74.582 180.387C74.781 180.28 74.971 180.077 75.152 179.778C75.333 179.48 75.529 179.057 75.738 178.511L78.731 170.67L79.459 170.67L82.622 178.756C82.851 179.327 83.02 179.714 83.127 179.916C83.234 180.118 83.382 180.273 83.571 180.383C83.76 180.493 84.025 180.548 84.367 180.548L84.367 181.252ZM72.774 165.023L67.709 165.023L67.709 164.025C68.113 164.025 68.457 163.949 68.739 163.796C69.021 163.645 69.29 163.358 69.547 162.936C69.804 162.512 70.08 161.913 70.377 161.14L74.618 150.032L75.649 150.032L80.128 161.487C80.454 162.296 80.692 162.845 80.844 163.13C80.996 163.415 81.206 163.636 81.473 163.791C81.741 163.947 82.117 164.025 82.602 164.025L82.602 165.023L75.67 165.023L75.67 164.025C76.256 164.025 76.683 163.983 76.95 163.9C77.217 163.817 77.352 163.62 77.352 163.309C77.352 163.092 77.308 162.872 77.222 162.647L76.527 160.911L71.754 160.911L71.396 161.866C71.194 162.402 71.092 162.788 71.092 163.028C71.092 163.461 71.261 163.735 71.597 163.852C71.934 163.967 72.325 164.025 72.774 164.025L72.774 165.023ZM71.012 181.145L70.292 181.145C70.185 180.706 70.009 180.313 69.764 179.966C69.376 180.369 68.932 180.716 68.431 181.007C67.931 181.298 67.254 181.444 66.402 181.444C65.468 181.444 64.602 181.217 63.802 180.762C63.003 180.308 62.367 179.673 61.893 178.859C61.418 178.045 61.18 177.127 61.18 176.107C61.18 175.382 61.309 174.69 61.567 174.032C61.825 173.373 62.192 172.794 62.669 172.293C63.146 171.793 63.716 171.4 64.377 171.114C65.038 170.828 65.761 170.685 66.547 170.685C67.844 170.685 68.916 171.109 69.764 171.956C69.876 171.737 69.986 171.418 70.093 170.999L70.782 170.999L70.905 174.82L70.17 174.82C70.037 174.172 69.797 173.595 69.45 173.09C69.103 172.584 68.69 172.198 68.213 171.93C67.736 171.662 67.236 171.527 66.716 171.527C66.134 171.527 65.611 171.687 65.146 172.006C64.682 172.325 64.318 172.812 64.055 173.465C63.792 174.119 63.661 174.933 63.661 175.908C63.661 176.857 63.771 177.647 63.99 178.278C64.21 178.908 64.482 179.384 64.806 179.705C65.13 180.027 65.455 180.245 65.782 180.36C66.108 180.475 66.415 180.532 66.7 180.532C67.328 180.532 67.894 180.364 68.397 180.027C68.899 179.69 69.312 179.265 69.634 178.752C69.955 178.239 70.17 177.73 70.277 177.224L71.012 177.224L71.012 181.145ZM54.19 152.055C54.103 151.82 53.902 151.638 53.587 151.508C53.273 151.378 52.805 151.312 52.183 151.312L52.183 150.314L59.58 150.314L59.58 151.312C58.966 151.312 58.502 151.373 58.186 151.496C57.872 151.62 57.666 151.799 57.569 152.033C57.47 152.268 57.422 152.606 57.422 153.047L57.422 161.509C57.422 162.173 57.455 162.651 57.519 162.941C57.585 163.229 57.762 163.449 58.051 163.597C58.34 163.745 58.814 163.819 59.472 163.819C60.304 163.819 61.032 163.756 61.658 163.63C62.283 163.502 62.862 163.166 63.393 162.62C63.925 162.074 64.256 161.237 64.386 160.109L65.384 160.109L65.286 165.023L52.183 165.023L52.183 164.025C53.087 164.025 53.669 163.895 53.929 163.635C54.19 163.375 54.32 162.925 54.32 162.29L54.32 153.047C54.32 152.62 54.276 152.289 54.19 152.055L54.19 152.055ZM59.134 181.252L54.241 181.252L54.241 180.548C54.654 180.548 54.956 180.518 55.144 180.459C55.333 180.401 55.428 180.262 55.428 180.042C55.428 179.889 55.397 179.733 55.336 179.575L54.846 178.35L51.477 178.35L51.224 179.024C51.082 179.401 51.01 179.675 51.01 179.843C51.01 180.149 51.128 180.344 51.366 180.425C51.603 180.507 51.88 180.548 52.197 180.548L52.197 181.252L48.621 181.252L48.621 180.548C48.907 180.548 49.15 180.494 49.349 180.387C49.548 180.28 49.737 180.077 49.919 179.778C50.1 179.48 50.296 179.057 50.505 178.511L53.498 170.67L54.225 170.67L57.388 178.756C57.618 179.327 57.787 179.714 57.894 179.916C58.001 180.118 58.149 180.273 58.338 180.383C58.526 180.493 58.792 180.548 59.134 180.548L59.134 181.252ZM46.963 163.201C46.413 163.771 45.784 164.264 45.075 164.676C44.366 165.088 43.409 165.294 42.201 165.294C40.877 165.294 39.649 164.972 38.518 164.329C37.387 163.684 36.484 162.786 35.812 161.634C35.139 160.48 34.803 159.18 34.803 157.734C34.803 156.706 34.985 155.726 35.35 154.794C35.716 153.861 36.237 153.04 36.912 152.332C37.589 151.623 38.396 151.066 39.332 150.661C40.268 150.256 41.293 150.054 42.407 150.054C44.244 150.054 45.762 150.654 46.963 151.855C47.122 151.543 47.277 151.092 47.429 150.498L48.405 150.498L48.579 155.912L47.538 155.912C47.35 154.993 47.01 154.176 46.518 153.46C46.026 152.744 45.442 152.197 44.766 151.817C44.09 151.437 43.383 151.247 42.646 151.247C41.821 151.247 41.079 151.473 40.422 151.924C39.764 152.376 39.248 153.065 38.876 153.991C38.504 154.917 38.317 156.07 38.317 157.452C38.317 158.797 38.473 159.916 38.784 160.809C39.095 161.701 39.48 162.377 39.94 162.832C40.398 163.288 40.859 163.597 41.322 163.76C41.785 163.922 42.218 164.003 42.624 164.003C43.513 164.003 44.314 163.765 45.026 163.288C45.738 162.811 46.323 162.208 46.778 161.482C47.234 160.755 47.538 160.033 47.689 159.318L48.731 159.318L48.731 164.871L47.711 164.871C47.559 164.248 47.31 163.692 46.963 163.201L46.963 163.201ZM31.842 89.018L30.177 88.444C30.617 87.165 29.896 85.714 28.015 84.093L14.397 72.411L15.001 70.655L32.95 69.698C34.727 69.604 35.861 69.357 36.352 68.955C36.843 68.553 37.169 68.118 37.331 67.647L38.996 68.22L35.522 78.318L33.856 77.746C34.17 76.835 34.277 76.24 34.178 75.959C34.078 75.68 33.893 75.493 33.624 75.4C33.384 75.317 33.037 75.299 32.585 75.345L32.053 75.379L30.366 75.454L28.213 81.711L29.085 82.447C29.699 82.972 30.151 83.284 30.441 83.384C30.931 83.552 31.33 83.505 31.639 83.242C31.948 82.979 32.231 82.472 32.489 81.722L34.155 82.295L31.842 89.018ZM34.931 40.365C35.03 38.578 35.701 37.071 36.943 35.844C38.243 34.556 39.781 33.9 41.554 33.872C41.481 33.498 41.263 33.03 40.899 32.465L42.197 31.183L46.66 35.696L45.396 36.946C44.181 36.168 42.938 35.769 41.667 35.746C40.395 35.725 39.364 36.104 38.574 36.885C37.98 37.472 37.672 38.105 37.65 38.782C37.627 39.458 37.862 40.046 38.352 40.542C38.732 40.925 39.196 41.169 39.745 41.274C40.295 41.378 40.867 41.347 41.462 41.182C42.058 41.017 43.263 40.61 45.077 39.962C46.711 39.388 47.999 39.044 48.942 38.929C49.885 38.815 50.824 38.917 51.757 39.236C52.691 39.556 53.518 40.081 54.24 40.81C55.578 42.164 56.192 43.786 56.081 45.673C55.969 47.562 55.221 49.19 53.837 50.559C53.048 51.34 52.111 51.938 51.028 52.355C49.944 52.772 48.906 52.929 47.911 52.826C48.073 53.336 48.354 53.876 48.755 54.447L47.401 55.786L42.224 50.55L43.578 49.212C45.501 50.404 47.17 50.963 48.584 50.889C49.998 50.815 51.141 50.345 52.014 49.482C52.661 48.843 52.987 48.142 52.991 47.378C52.995 46.615 52.741 45.974 52.227 45.456C51.863 45.087 51.378 44.838 50.773 44.707C50.168 44.576 49.19 44.731 47.842 45.173C45.248 46.027 43.448 46.553 42.441 46.753C41.434 46.953 40.433 46.919 39.44 46.652C38.447 46.385 37.545 45.841 36.733 45.021C35.432 43.705 34.831 42.153 34.931 40.365L34.931 40.365ZM69.718 17.796C70.941 15.024 73.222 13.128 76.562 12.111C79.062 11.349 81.433 11.529 83.676 12.647C83.751 12.06 83.778 11.384 83.754 10.617L85.424 10.108L87.953 17.648L86.283 18.157C85.159 16.243 83.871 14.93 82.42 14.216C80.97 13.503 79.471 13.381 77.922 13.853C76.141 14.396 75.013 15.502 74.538 17.173C74.063 18.844 74.277 21.162 75.18 24.127C75.815 26.212 76.48 27.815 77.176 28.936C77.871 30.057 78.797 30.801 79.954 31.166C81.11 31.533 82.256 31.544 83.389 31.198C84.887 30.742 86.064 29.813 86.92 28.413C87.777 27.014 88.137 25.167 88.003 22.875L89.688 22.362L92.042 30.088L90.357 30.601C89.915 29.841 89.426 29.27 88.89 28.891C87.704 31.133 85.71 32.68 82.906 33.535C79.719 34.506 76.852 34.24 74.304 32.738C71.755 31.237 70.045 29.054 69.173 26.189C68.313 23.366 68.495 20.568 69.718 17.796L69.718 17.796ZM116.768 120.375L124.957 120.375L124.957 102.545L116.768 102.545L116.768 120.375ZM99.575 120.375L107.764 120.375L107.764 102.545L99.575 102.545L99.575 120.375ZM82.382 120.375L90.571 120.375L90.571 102.545L82.382 102.545L82.382 120.375ZM103.575 140.018C104.778 140.018 105.753 140.993 105.753 142.196C105.753 143.399 104.778 144.374 103.575 144.374C102.372 144.374 101.397 143.399 101.397 142.196C101.397 140.993 102.372 140.018 103.575 140.018L103.575 140.018ZM108.82 142.832C108.459 142.832 108.167 142.54 108.167 142.178C108.167 141.818 108.459 141.525 108.82 141.525L158.714 141.525C159.075 141.525 159.367 141.818 159.367 142.178C159.367 142.54 159.075 142.832 158.714 142.832L108.82 142.832ZM118.644 163.276C118.738 163.515 118.939 163.699 119.246 163.83C119.554 163.96 120.033 164.025 120.683 164.025L120.683 165.023L113.221 165.023L113.221 164.025C113.842 164.025 114.312 163.965 114.631 163.847C114.949 163.727 115.157 163.548 115.254 163.309C115.352 163.071 115.401 162.73 115.401 162.29L115.401 153.047C115.401 152.411 115.269 151.963 115.005 151.703C114.741 151.442 114.146 151.312 113.221 151.312L113.221 150.314L120.683 150.314L120.683 151.312C120.062 151.312 119.592 151.373 119.273 151.496C118.955 151.62 118.747 151.799 118.65 152.033C118.552 152.268 118.503 152.606 118.503 153.047L118.503 162.29C118.503 162.709 118.55 163.038 118.644 163.276L118.644 163.276ZM170.518 103.474C170.518 112.828 168.601 121.734 165.14 129.822L145.899 129.822L145.899 129.688L145.899 123.407L139.485 123.407L139.485 120.019L133.468 120.019L133.468 102.545L142.967 102.545L142.967 100.898L145.014 100.977L145.07 96.46L103.473 74.041L61.815 96.446L61.815 100.962L63.98 100.962L63.98 102.545L73.478 102.545L73.478 120.019L67.461 120.019L67.461 123.407L61.047 123.407L61.047 129.688L61.047 129.822L41.807 129.822C38.346 121.734 36.428 112.828 36.428 103.474C36.428 66.446 66.445 36.428 103.473 36.428C140.501 36.428 170.518 66.446 170.518 103.474L170.518 103.474ZM108.923 27.834L109.311 27.916C110.357 28.137 111.078 28.087 111.476 27.766C111.874 27.445 112.173 26.813 112.372 25.871L115.013 13.389C115.216 12.427 115.195 11.723 114.949 11.275C114.703 10.829 114.067 10.497 113.043 10.28L112.655 10.198L113.013 8.506L130.944 12.3L130.101 17.814L128.362 17.446C128.253 16.429 128.067 15.597 127.803 14.952C127.54 14.307 127.231 13.863 126.877 13.62C126.523 13.378 125.885 13.159 124.964 12.964L121.037 12.133L119.5 19.399L121.456 19.813C122.387 20.01 123.042 19.965 123.422 19.678C123.802 19.39 124.122 18.734 124.382 17.707L126.136 18.078L124.626 25.22L122.872 24.849C122.91 24.716 122.937 24.619 122.95 24.557C123.076 23.957 123.064 23.386 122.914 22.846C122.763 22.306 122.165 21.926 121.12 21.704L119.102 21.277L118.001 26.478C117.791 27.472 117.71 28.133 117.76 28.463C117.809 28.792 118.061 29.11 118.515 29.417C118.969 29.724 119.703 29.985 120.718 30.2C122.094 30.491 123.142 30.534 123.861 30.33C124.58 30.124 125.287 29.647 125.981 28.896C126.675 28.145 127.239 27.308 127.672 26.384L129.411 26.751L127.81 33.63L108.559 29.557L108.923 27.834ZM143.29 38.881C143.806 39.335 144.365 39.605 144.966 39.691C145.567 39.776 146.064 39.699 146.457 39.461C146.85 39.222 147.359 38.75 147.981 38.043L155.238 29.802C156.686 28.158 156.639 26.659 155.099 25.302L156.264 23.981L161.717 28.784L161.861 46.461L167.073 40.542C168.626 38.779 168.659 37.244 167.174 35.937L168.339 34.615L174.138 39.722L172.974 41.044C172.569 40.688 172.092 40.465 171.543 40.376C170.994 40.287 170.504 40.36 170.073 40.593C169.642 40.827 169.136 41.273 168.556 41.933L157.638 54.329L156.114 52.987L156.049 31.955L149.516 39.374C148.467 40.564 148.009 41.521 148.141 42.244C148.273 42.967 148.676 43.625 149.352 44.219L148.188 45.54L142.126 40.202L143.29 38.881ZM103.473 0C46.326 0 0 46.327 0 103.474C0 160.621 46.326 206.948 103.473 206.948C160.619 206.948 206.946 160.621 206.946 103.474C206.946 46.327 160.619 0 103.473 0L103.473 0Z" transform="translate(4.5269 4.526)" id="Fill-16" fill="#142C54" fill-rule="evenodd" stroke="none" />
    </g>
  </g>
</svg>