<?xml version="1.0" encoding="utf-8"?>
<svg width="28px" height="25px" viewBox="0 0 28 25" version="1.1" xmlns:xlink="http://www.w3.org/1999/xlink" xmlns="http://www.w3.org/2000/svg">
  <defs>
    <filter id="filter_1">
      <feColorMatrix in="SourceGraphic" type="matrix" values="0 0 0 0 1 0 0 0 0 0.8039216 0 0 0 0 0 0 0 0 1 0" />
    </filter>
  </defs>
  <g id="donate-icon" filter="url(#filter_1)">
    <path d="M11.05 0L11.05 3.90625L7.10359 3.90625L7.10359 8.59375L11.05 8.59375L11.05 12.5L15.7858 12.5L15.7858 8.59375L19.7322 8.59375L19.7322 3.90625L15.7858 3.90625L15.7858 0L11.05 0ZM6.90627 15.9668L3.39394 18.75L0 18.75L0 25L1.57858 25L11.05 25L18.9429 25L19.5546 25L20.0578 24.6582L26.3721 20.3613L28 19.2529L25.7653 16.0352L24.1374 17.1436L19.4757 20.3174L12.6286 20.3174L12.6286 18.75L14.2072 18.75L17.3643 18.75L18.9429 18.75L18.9429 15.625L17.3643 15.625L14.2072 15.625L11.05 15.625L7.89288 15.625L7.34038 15.625L6.90627 15.9668Z" id="Shape" fill="#000000" stroke="none" />
  </g>
</svg>