<?xml version="1.0" encoding="utf-8"?>
<svg width="35px" height="35px" viewBox="0 0 35 35" version="1.1" xmlns:xlink="http://www.w3.org/1999/xlink" xmlns="http://www.w3.org/2000/svg">
  <g id="Facebook">
    <path d="M0 17.5C0 7.83502 7.83502 0 17.5 0C27.165 0 35 7.83502 35 17.5C35 27.165 27.165 35 17.5 35C7.83502 35 0 27.165 0 17.5Z" id="back" fill="#3B5998" stroke="none" />
    <path d="M5.90738 19.0396L5.90738 9.51869L8.53557 9.51869L8.88387 6.23773L5.90738 6.23773L5.91185 4.59558C5.91185 3.73985 5.99315 3.28133 7.22222 3.28133L8.86526 3.28133L8.86526 0L6.2367 0C3.07937 0 1.96807 1.59162 1.96807 4.26822L1.96807 6.2381L0 6.2381L0 9.51907L1.96807 9.51907L1.96807 19.0396L5.90738 19.0396Z" transform="translate(13.416667 8.75)" id="Shape" fill="#FFFFFF" stroke="none" />
  </g>
</svg>