<?xml version="1.0" encoding="utf-8"?>
<svg width="28px" height="28px" viewBox="0 0 28 28" version="1.1" xmlns:xlink="http://www.w3.org/1999/xlink" xmlns="http://www.w3.org/2000/svg">
  <defs>
    <filter id="filter_1">
      <feColorMatrix in="SourceGraphic" type="matrix" values="0 0 0 0 1 0 0 0 0 0.8039216 0 0 0 0 0 0 0 0 1 0" />
    </filter>
  </defs>
  <g id="bullseye-arrow-regular" filter="url(#filter_1)">
    <path d="M20.0375 11.6758L22.5422 12.0914C22.6789 12.7094 22.75 13.3438 22.75 14C22.75 18.8344 18.8344 22.75 14 22.75C9.16562 22.75 5.25 18.8344 5.25 14C5.25 9.16562 9.16562 5.25 14 5.25C14.607 5.25 15.2906 5.32219 15.9086 5.45836L16.3242 7.9625L16.0563 8.23047C15.4164 8.00078 14.7219 7.82578 14 7.82578C10.6148 7.82578 7.875 10.6148 7.875 13.9508C7.875 17.3852 10.6148 20.125 14 20.125C17.3852 20.125 20.125 17.3852 20.125 13.9508C20.125 13.2781 19.9992 12.5836 19.7695 11.9438L20.0375 11.6758ZM27.218 9.37891C27.6773 10.7789 28 12.3812 28 14C28 21.7328 21.7328 28 14 28C6.26719 28 0 21.7328 0 14C0 6.26719 6.26719 0 14 0C15.6188 0 17.1719 0.27475 18.6211 0.780391L16.4992 2.90062C15.6461 2.72016 14.8586 2.625 14 2.625C7.71641 2.625 2.625 7.71641 2.625 14C2.625 20.2836 7.71641 25.375 14 25.375C20.2836 25.375 25.375 20.2836 25.375 14C25.375 13.1414 25.282 12.3047 25.0523 11.5008L27.218 9.37891ZM14.8805 14.8805C14.4156 15.4383 13.5844 15.4383 13.0703 14.8805C12.5617 14.4156 12.5617 13.5844 13.0703 13.0703L18.1125 8.03359L17.6477 5.26312C17.5547 4.70586 17.7352 4.13766 18.1344 3.73844L20.9344 0.938437C21.3336 0.494102 22.132 0.648594 22.3672 1.23211L23.625 4.32578L26.7695 5.58359C27.3492 5.86797 27.4586 6.61719 27.0594 7.06563L24.2594 9.86563C23.8602 10.2648 23.2914 10.3961 22.7391 10.3523L19.9664 9.8875L14.8805 14.8805Z" id="Shape" fill="#000000" stroke="none" />
  </g>
</svg>