<?xml version="1.0" encoding="utf-8"?>
<svg width="27px" height="27px" viewBox="0 0 27 27" version="1.1" xmlns:xlink="http://www.w3.org/1999/xlink" xmlns="http://www.w3.org/2000/svg">
  <defs>
    <filter id="filter_1">
      <feColorMatrix in="SourceGraphic" type="matrix" values="0 0 0 0 1 0 0 0 0 0.8039216 0 0 0 0 0 0 0 0 1 0" />
    </filter>
  </defs>
  <g id="octagon-check-regular" filter="url(#filter_1)">
    <path d="M10.0984 2.53226C9.76607 2.53226 9.43901 2.66572 9.20163 2.90311L2.9031 9.20164C2.66571 9.43902 2.53225 9.76608 2.53225 10.0984L2.53225 16.9034C2.53225 17.2357 2.66571 17.5153 2.9031 17.8001L1.11218 19.5884C0.400142 18.8763 0 17.9109 0 16.9034L0 10.0984C0 9.09086 0.400142 8.12551 1.11218 7.41336L7.41335 1.11219C8.1255 0.400152 9.09085 0 10.0984 0L16.9034 0C17.9109 0 18.8763 0.400152 19.5884 1.11219L25.8869 7.41336C26.5991 8.12551 27 9.09086 27 10.0984L27 16.9034C27 17.9109 26.5991 18.8763 25.8869 19.5884L19.5884 25.8869C18.8763 26.5991 17.9109 27 16.9034 27L10.0984 27C9.09085 27 8.1255 26.5991 7.41335 25.8869L1.11218 19.5884L2.9031 17.8001L9.20163 24.0987C9.43901 24.336 9.76607 24.4679 10.0984 24.4679L16.9034 24.4679C17.2357 24.4679 17.5153 24.336 17.8001 24.0987L24.0987 17.8001C24.336 17.5153 24.4679 17.2357 24.4679 16.9034L24.4679 10.0984C24.4679 9.76608 24.336 9.43902 24.0987 9.20164L17.8001 2.90311C17.5153 2.66572 17.2357 2.53226 16.9034 2.53226L10.0984 2.53226ZM12.6622 17.7263C12.2138 18.2644 11.412 18.2644 10.9162 17.7263L7.54006 14.3502C7.04947 13.9018 7.04947 13.1 7.54006 12.6041C8.03593 12.1136 8.83775 12.1136 9.28614 12.6041L11.8129 15.0887L17.6684 9.22805C18.1642 8.73746 18.966 8.73746 19.4144 9.22805C19.9525 9.72391 19.9525 10.5257 19.4144 10.9741L12.6622 17.7263Z" id="Shape" fill="#000000" stroke="none" />
  </g>
</svg>