<?xml version="1.0" encoding="utf-8"?>
<svg width="36px" height="36px" viewBox="0 0 36 36" version="1.1" xmlns:xlink="http://www.w3.org/1999/xlink" xmlns="http://www.w3.org/2000/svg">
  <defs>
    <linearGradient x1="-0.14948459" y1="0.07346095" x2="1.4123778" y2="1.2665" id="gradient_1">
      <stop offset="0" stop-color="#7017FF" />
      <stop offset="0.21110296" stop-color="#C500E9" />
      <stop offset="0.38773385" stop-color="#F80261" />
      <stop offset="0.5075155" stop-color="#FE3B36" />
      <stop offset="1" stop-color="#FFD000" />
    </linearGradient>
    <path d="M0 17.5C0 7.83502 7.83502 0 17.5 0C27.165 0 35 7.83502 35 17.5C35 27.165 27.165 35 17.5 35C7.83502 35 0 27.165 0 17.5Z" id="path_1" />
    <clipPath id="mask_1">
      <use xlink:href="#path_1" />
    </clipPath>
  </defs>
  <g id="Instagram" transform="translate(0.36499023 0.36499023)">
    <g id="back">
      <path d="M0 17.5C0 7.83502 7.83502 0 17.5 0C27.165 0 35 7.83502 35 17.5C35 27.165 27.165 35 17.5 35C7.83502 35 0 27.165 0 17.5Z" id="path-1" fill="#FFFFFF" stroke="none" />
    </g>
    <g id="Shape-Clipped">
      <path d="M0 17.5C0 7.83502 7.83502 0 17.5 0C27.165 0 35 7.83502 35 17.5C35 27.165 27.165 35 17.5 35C7.83502 35 0 27.165 0 17.5Z" id="path-1" fill="url(#gradient_1)" fill-rule="evenodd" stroke="none" />
      <g clip-path="url(#mask_1)">
        <path d="M9.33421 0C6.7994 0 6.48129 0.0110834 5.48572 0.0563895C4.4921 0.10189 3.81387 0.259197 3.22042 0.490005C2.60655 0.728396 2.08583 1.04729 1.56704 1.56627C1.04787 2.08505 0.72898 2.60578 0.489811 3.21945C0.258419 3.8131 0.100918 4.49152 0.056195 5.48475C0.0116668 6.48032 0 6.79863 0 9.33343C0 11.8682 0.0112779 12.1854 0.0563895 13.1809C0.102084 14.1746 0.259392 14.8528 0.490005 15.4462C0.728591 16.0601 1.04748 16.5808 1.56646 17.0996C2.08505 17.6188 2.60578 17.9385 3.21926 18.1769C3.8131 18.4077 4.49152 18.565 5.48495 18.6105C6.48051 18.6558 6.79843 18.6669 9.33304 18.6669C11.868 18.6669 12.1852 18.6558 13.1807 18.6105C14.1744 18.565 14.8534 18.4077 15.4472 18.1769C16.0609 17.9385 16.5808 17.6188 17.0994 17.0996C17.6186 16.5808 17.9375 16.0601 18.1767 15.4464C18.4061 14.8528 18.5636 14.1744 18.6103 13.1811C18.655 12.1856 18.6667 11.8682 18.6667 9.33343C18.6667 6.79863 18.655 6.48051 18.6103 5.48495C18.5636 4.49132 18.4061 3.8131 18.1767 3.21964C17.9375 2.60578 17.6186 2.08505 17.0994 1.56627C16.5803 1.04709 16.0611 0.728202 15.4466 0.490005C14.8516 0.259197 14.173 0.10189 13.1794 0.0563895C12.1838 0.0110834 11.8669 0 9.33129 0L9.33421 0ZM8.49692 1.68196C8.74542 1.68157 9.02271 1.68196 9.33421 1.68196C11.8262 1.68196 12.1216 1.69091 13.1057 1.73563C14.0157 1.77724 14.5096 1.9293 14.8386 2.05705C15.2742 2.22622 15.5847 2.42844 15.9112 2.75511C16.2378 3.08178 16.4401 3.3929 16.6096 3.82846C16.7374 4.15707 16.8896 4.65097 16.931 5.56097C16.9758 6.54487 16.9855 6.84043 16.9855 9.33129C16.9855 11.8222 16.9758 12.1177 16.931 13.1016C16.8894 14.0116 16.7374 14.5055 16.6096 14.8341C16.4404 15.2697 16.2378 15.5798 15.9112 15.9063C15.5845 16.233 15.2744 16.4352 14.8386 16.6044C14.51 16.7327 14.0157 16.8844 13.1057 16.926C12.1218 16.9707 11.8262 16.9804 9.33421 16.9804C6.84199 16.9804 6.54662 16.9707 5.56272 16.926C4.65272 16.884 4.15882 16.7319 3.82962 16.6042C3.39406 16.435 3.08295 16.2328 2.75628 15.9061C2.42961 15.5794 2.22738 15.2691 2.05783 14.8333C1.93008 14.5047 1.77782 14.0108 1.73641 13.1008C1.69168 12.1169 1.68274 11.8214 1.68274 9.32896C1.68274 6.83654 1.69168 6.54254 1.73641 5.55864C1.77802 4.64863 1.93008 4.15474 2.05783 3.82573C2.227 3.39017 2.42961 3.07906 2.75628 2.75239C3.08295 2.42572 3.39406 2.2235 3.82962 2.05394C4.15863 1.9256 4.65272 1.77394 5.56272 1.73213C6.42373 1.69324 6.7574 1.68157 8.49692 1.67963L8.49692 1.68196ZM14.3163 3.2317C13.698 3.2317 13.1963 3.73279 13.1963 4.35132C13.1963 4.96966 13.698 5.47133 14.3163 5.47133C14.9347 5.47133 15.4363 4.96966 15.4363 4.35132C15.4363 3.73298 14.9347 3.23131 14.3163 3.23131L14.3163 3.2317ZM9.33421 4.54033C6.68721 4.54033 4.5411 6.68643 4.5411 9.33343C4.5411 11.9804 6.68721 14.1256 9.33421 14.1256C11.9812 14.1256 14.1265 11.9804 14.1265 9.33343C14.1265 6.68643 11.981 4.54033 9.33401 4.54033L9.33421 4.54033ZM9.33421 6.22229C11.0523 6.22229 12.4454 7.61511 12.4454 9.33343C12.4454 11.0516 11.0523 12.4446 9.33421 12.4446C7.61588 12.4446 6.22306 11.0516 6.22306 9.33343C6.22306 7.61511 7.61588 6.22229 9.33421 6.22229L9.33421 6.22229Z" transform="translate(8.166667 8.166667)" id="Shape" fill="#FFFFFF" stroke="none" />
      </g>
    </g>
  </g>
</svg>