<?xml version="1.0" encoding="utf-8"?>
<svg width="35px" height="35px" viewBox="0 0 35 35" version="1.1" xmlns:xlink="http://www.w3.org/1999/xlink" xmlns="http://www.w3.org/2000/svg">
  <g id="LinkedIN">
    <path d="M0 17.5C0 7.83502 7.83502 0 17.5 0C27.165 0 35 7.83502 35 17.5C35 27.165 27.165 35 17.5 35C7.83502 35 0 27.165 0 17.5Z" id="back" fill="#0077B5" stroke="none" />
    <path d="M4.2004 5.74426L4.2004 17.6601L0.234512 17.6601L0.234512 5.74426L4.2004 5.74426ZM4.4616 2.05822C4.4616 3.20236 3.60037 4.11786 2.21753 4.11786L2.19219 4.11786C0.86075 4.11786 0 3.20236 0 2.05822C0 0.889877 0.886966 0 2.24367 0C3.60037 0 4.43586 0.889877 4.4616 2.05822ZM18.5029 10.8279L18.5027 17.6601L14.537 17.6601L14.537 11.2851C14.537 9.68386 13.9631 8.59121 12.5274 8.59121C11.4318 8.59121 10.7792 9.32782 10.4926 10.0393C10.3877 10.2942 10.362 10.6495 10.362 11.0056L10.362 17.6604L6.39559 17.6604C6.39559 17.6604 6.44787 6.8627 6.39559 5.74458L10.362 5.74458L10.362 7.43236C10.8883 6.62101 11.831 5.46446 13.9367 5.46446C16.5464 5.46446 18.5029 7.16789 18.5029 10.8279Z" transform="translate(8.166667 8.75)" id="Shape" fill="#FFFFFF" stroke="none" />
  </g>
</svg>