<?xml version="1.0" encoding="utf-8"?>
<svg width="25px" height="17px" viewBox="0 0 25 17" version="1.1" xmlns:xlink="http://www.w3.org/1999/xlink" xmlns="http://www.w3.org/2000/svg">
  <defs>
    <filter id="filter_1">
      <feColorMatrix in="SourceGraphic" type="matrix" values="0 0 0 0 1 0 0 0 0 1 0 0 0 0 1 0 0 0 1 0" />
    </filter>
  </defs>
  <g id="menu-icon" transform="matrix(-1 0 0 1 24.285645 0)">
    <path d="M0 1.41667C0 0.633073 0.638393 0 1.42857 0L18.5714 0C19.3616 0 20 0.633073 20 1.41667C20 2.20026 19.3616 2.83333 18.5714 2.83333L1.42857 2.83333C0.638393 2.83333 0 2.20026 0 1.41667ZM0 8.5C0 7.71641 0.638393 7.08333 1.42857 7.08333L22.8571 7.08333C23.6473 7.08333 24.2857 7.71641 24.2857 8.5C24.2857 9.28359 23.6473 9.91667 22.8571 9.91667L1.42857 9.91667C0.638393 9.91667 0 9.28359 0 8.5ZM19.5714 15.5833C19.5714 16.3669 18.933 17 18.1429 17L1.42857 17C0.638393 17 0 16.3669 0 15.5833C0 14.7997 0.638393 14.1667 1.42857 14.1667L18.1429 14.1667C18.933 14.1667 19.5714 14.7997 19.5714 15.5833Z" id="Shape" fill="#FFFFFF" stroke="none" />
  </g>
</svg>