<?xml version="1.0" encoding="utf-8"?>
<svg width="25px" height="16px" viewBox="0 0 25 16" version="1.1" xmlns:xlink="http://www.w3.org/1999/xlink" xmlns="http://www.w3.org/2000/svg">
  <path d="M2.5 1.84615L17.5 1.84615C17.8438 1.84615 18.125 2.12308 18.125 2.46154L18.125 3.31154L17.2422 4.02308C17.9141 3.80769 18.6328 3.69231 19.375 3.69231C19.5859 3.69231 19.793 3.7 20 3.71923L20 2.46154C20 1.10385 18.8789 0 17.5 0L2.5 0C1.12109 0 0 1.10385 0 2.46154L0 12.3077C0 13.6654 1.12109 14.7692 2.5 14.7692L14.0703 14.7692C13.6094 14.2192 13.2344 13.5962 12.9688 12.9231L2.5 12.9231C2.15625 12.9231 1.875 12.6462 1.875 12.3077L1.875 5.7L7.42188 10.1846C8.89453 11.3769 11.0078 11.3962 12.5039 10.2423C12.5391 9.11923 12.8516 8.06923 13.3789 7.15L11.3906 8.75769C10.582 9.41154 9.42188 9.41154 8.61328 8.75769L1.875 3.31154L1.875 2.46154C1.875 2.12308 2.15625 1.84615 2.5 1.84615ZM25 10.4615C25 7.40273 22.4816 4.92308 19.375 4.92308C16.2684 4.92308 13.75 7.40273 13.75 10.4615C13.75 13.5203 16.2684 16 19.375 16C22.4816 16 25 13.5203 25 10.4615L25 10.4615ZM22.0039 8.79615C22.2461 9.03462 22.2461 9.42692 22.0039 9.66538L19.1914 12.4346C18.9492 12.6731 18.5508 12.6731 18.3086 12.4346L16.7461 10.8962C16.5039 10.6577 16.5039 10.2654 16.7461 10.0269C16.9883 9.78846 17.3867 9.78846 17.6289 10.0269L18.75 11.1308L21.1211 8.79615C21.3633 8.55769 21.7617 8.55769 22.0039 8.79615L22.0039 8.79615Z" id="Shape" fill="#FFCD00" stroke="none" />
</svg>