<?xml version="1.0" encoding="utf-8"?>
<svg width="24px" height="24px" viewBox="0 0 24 24" version="1.1" xmlns:xlink="http://www.w3.org/1999/xlink" xmlns="http://www.w3.org/2000/svg">
  <path d="M23.636 22.0781L17.3531 15.7969C18.7128 14.1328 19.463 12.0375 19.463 9.75C19.463 4.36406 15.0964 0 9.71043 0C4.32445 0 0 4.36547 0 9.75C0 15.1345 4.36618 19.5 9.71043 19.5C11.9981 19.5 14.0968 18.7073 15.7589 17.3888L22.0419 23.67C22.3044 23.8922 22.5951 24 22.8811 24C23.1672 24 23.4569 23.8901 23.6768 23.6704C24.1143 23.2313 24.1143 22.5187 23.636 22.0781ZM2.25049 9.75C2.25049 5.61469 5.61608 2.25 9.7525 2.25C13.8889 2.25 17.2545 5.61469 17.2545 9.75C17.2545 13.8853 13.8889 17.25 9.7525 17.25C5.61608 17.25 2.25049 13.8844 2.25049 9.75Z" id="Shape" fill="#FFCD00" stroke="none" />
</svg>