<?xml version="1.0" encoding="utf-8"?>
<svg width="35px" height="35px" viewBox="0 0 35 35" version="1.1" xmlns:xlink="http://www.w3.org/1999/xlink" xmlns="http://www.w3.org/2000/svg">
  <g id="Youtube">
    <path d="M0 17.5C0 7.83502 7.83502 0 17.5 0C27.165 0 35 7.83502 35 17.5C35 27.165 27.165 35 17.5 35C7.83502 35 0 27.165 0 17.5Z" id="back" fill="#FF0000" stroke="none" />
    <path d="M18.2766 2.09506C18.0619 1.27036 17.4294 0.620954 16.6262 0.400552C15.1706 0 9.33333 0 9.33333 0C9.33333 0 3.49608 0 2.04039 0.400552C1.2372 0.620954 0.604652 1.27036 0.389985 2.09506C0 3.58972 0 6.70833 0 6.70833C0 6.70833 0 9.82684 0.389985 11.3216C0.604652 12.1463 1.2372 12.7957 2.04039 13.0162C3.49608 13.4167 9.33333 13.4167 9.33333 13.4167C9.33333 13.4167 15.1706 13.4167 16.6262 13.0162C17.4294 12.7957 18.0619 12.1463 18.2766 11.3216C18.6667 9.82684 18.6667 6.70833 18.6667 6.70833C18.6667 6.70833 18.6667 3.58972 18.2766 2.09506" transform="translate(8.166667 11.083333)" id="Fill-1" fill="#FFFFFF" stroke="none" />
    <path d="M0 5.83333L0 0L4.66667 2.91678L0 5.83333Z" transform="translate(15.75 15.166667)" id="Fill-2" fill="#FF0000" stroke="none" />
  </g>
</svg>